{
  "asset": {
    "generator": "Khronos glTF Blender I/O v1.6.16",
    "version": "2.0"
  },
  "scene": 0,
  "scenes": [
    {
      "name": "Scene",
      "nodes": [0]
    }
  ],
  "nodes": [
    {
      "mesh": 0,
      "name": "TV.007",
      "scale": [0.012394070625305176, 0.012394070625305176, 0.009999999776482582],
      "translation": [0.008273176848888397, -0.037676937878131866, 0.24456468224525452]
    }
  ],
  "meshes": [
    {
      "name": "Mesh.010",
      "primitives": [
        {
          "attributes": {
            "POSITION": 0,
            "NORMAL": 1,
            "TEXCOORD_0": 2
          },
          "indices": 3
        }
      ]
    }
  ],
  "accessors": [
    {
      "bufferView": 0,
      "componentType": 5126,
      "count": 116,
      "max": [20.80032730102539, 33.706871032714844, -1.0251471996307373],
      "min": [-27.494165420532227, -3.006871461868286, -15.612407684326172],
      "type": "VEC3"
    },
    {
      "bufferView": 1,
      "componentType": 5126,
      "count": 116,
      "type": "VEC3"
    },
    {
      "bufferView": 2,
      "componentType": 5126,
      "count": 116,
      "type": "VEC2"
    },
    {
      "bufferView": 3,
      "componentType": 5123,
      "count": 174,
      "type": "SCALAR"
    }
  ],
  "bufferViews": [
    {
      "buffer": 0,
      "byteLength": 1392,
      "byteOffset": 0
    },
    {
      "buffer": 0,
      "byteLength": 1392,
      "byteOffset": 1392
    },
    {
      "buffer": 0,
      "byteLength": 928,
      "byteOffset": 2784
    },
    {
      "buffer": 0,
      "byteLength": 348,
      "byteOffset": 3712
    }
  ],
  "buffers": [
    {
      "byteLength": 4060,
      "uri": "data:application/octet-stream;base64,"
    }
  ]
}
